Coordinates
version=1
nRows=26
nColumns=24
inDegrees=yes

Units are S.I. units (second, meters, Newtons, ...)
Angles are in degrees.

endheader
time	pelvis_tilt	pelvis_list	pelvis_rotation	pelvis_tx	pelvis_ty	pelvis_tz	hip_flexion_r	hip_adduction_r	hip_rotation_r	knee_angle_r	ankle_angle_r	subtalar_angle_r	mtp_angle_r	hip_flexion_l	hip_adduction_l	hip_rotation_l	knee_angle_l	ankle_angle_l	subtalar_angle_l	mtp_angle_l	lumbar_extension	lumbar_bending	lumbar_rotation
      1.96000000	     61.52922283	     -1.07932982	     -1.81310979	      0.65128843	      1.01443851	     -0.20521592	      9.82122776	     -0.31662840	      9.86452859	    -16.05686532	    -19.96224450	     19.75712620	     47.86933257	     -5.88731172	    -10.65323791	      3.04677947	    -52.67323433	      5.79422157	     23.04895749	     30.61502754	      0.00000000	      0.00000000	      0.00000000
      1.97000000	     61.55547481	     -1.05296280	     -1.82374419	      0.65126628	      1.01445009	     -0.20526138	      9.77957048	     -0.34870655	      9.86188281	    -16.04642615	    -19.95249583	     19.77128049	     47.73124190	     -5.73694097	    -10.59287070	      3.02655974	    -53.10671783	      5.07763651	     22.35597166	     30.59275153	      0.00000000	      0.00000000	      0.00000000
      1.98000000	     61.57729949	     -1.01716840	     -1.83814613	      0.65118794	      1.01468536	     -0.20523825	      9.73112443	     -0.38500409	      9.86336515	    -16.03236902	    -19.95630039	     19.78065768	     47.61276840	     -5.55438472	    -10.52324242	      3.00385202	    -53.63304626	      4.24803516	     21.60952294	     30.54538480	      0.00000000	      0.00000000	      0.00000000
      1.99000000	     61.59304251	     -0.97742886	     -1.85322394	      0.65108284	      1.01501606	     -0.20517531	      9.68873980	     -0.42185132	      9.86773035	    -16.01727604	    -19.96969540	     19.78488063	     47.51819213	     -5.36017603	    -10.45243750	      2.98251369	    -54.17752114	      3.39348984	     20.84627085	     30.47421773	      0.00000000	      0.00000000	      0.00000000
      2.00000000	     61.60308943	     -0.94171055	     -1.86500347	      0.65102513	      1.01517944	     -0.20514230	      9.66563675	     -0.45584114	      9.87437473	    -16.00306597	    -19.98844178	     19.78406954	     47.44983246	     -5.17651108	    -10.38871653	      2.96788204	    -54.65631800	      2.60645354	     20.10723209	     30.38410021	      0.00000000	      0.00000000	      0.00000000
      2.01000000	     61.60702438	     -0.91599918	     -1.87070923	      0.65102614	      1.01510228	     -0.20516607	      9.66811639	     -0.48383363	      9.88347822	    -15.99115556	    -20.00889139	     19.77878493	     47.40804881	     -5.02322530	    -10.33812327	      2.96401278	    -55.00688707	      1.96378284	     19.43249864	     30.28172491	      0.00000000	      0.00000000	      0.00000000
      2.02000000	     61.60295503	     -0.90149223	     -1.86996526	      0.65103093	      1.01493874	     -0.20521512	      9.69195949	     -0.50338316	      9.89534914	    -15.98247338	    -20.02849844	     19.76987722	     47.39141482	     -4.91401174	    -10.30346429	      2.97116668	    -55.20776811	      1.51279379	     18.85579310	     30.17413822	      0.00000000	      0.00000000	      0.00000000
      2.03000000	     61.59044551	     -0.89551135	     -1.86458226	      0.65100627	      1.01484109	     -0.20525038	      9.72513121	     -0.51368503	      9.90966746	    -15.97710609	    -20.04590096	     19.75826389	     47.39704673	     -4.85336457	    -10.28460369	      2.98532151	    -55.27837856	      1.26687521	     18.39994879	     30.06763871	      0.00000000	      0.00000000	      0.00000000
      2.04000000	     61.57358602	     -0.89441684	     -1.85754238	      0.65097034	      1.01484098	     -0.20525693	      9.75428468	     -0.51614239	      9.92521988	    -15.97410434	    -20.06071515	     19.74472219	     47.42100576	     -4.83581992	    -10.27934118	      3.00003227	    -55.26347906	      1.20937531	     18.07422416	     29.96705687	      0.00000000	      0.00000000	      0.00000000
      2.05000000	     61.56014294	     -0.89572023	     -1.85180507	      0.65095228	      1.01489385	     -0.20524056	      9.77034150	     -0.51379280	      9.94025115	    -15.97196756	    -20.07324885	     19.72978334	     47.45867984	     -4.84856820	    -10.28434911	      3.00940710	    -55.21291271	      1.30250098	     17.87388868	     29.87542051	      0.00000000	      0.00000000	      0.00000000
      2.06000000	     61.55708539	     -0.89832972	     -1.84931811	      0.65095595	      1.01494826	     -0.20521403	      9.77060013	     -0.50989295	      9.95315402	    -15.96952101	    -20.08424107	     19.71374603	     47.50509281	     -4.87635029	    -10.29594935	      3.01050813	    -55.16554899	      1.49792551	     17.78198994	     29.79400061	      0.00000000	      0.00000000	      0.00000000
      2.07000000	     61.56639735	     -0.90176354	     -1.85055361	      0.65096583	      1.01497598	     -0.20518807	      9.75793458	     -0.50664566	      9.96308030	    -15.96644526	    -20.09462552	     19.69677080	     47.55514704	     -4.90610697	    -10.31068628	      3.00411137	    -55.14163567	      1.74656126	     17.77279247	     29.72265586	      0.00000000	      0.00000000	      0.00000000
      2.08000000	     61.58428365	     -0.90550156	     -1.85471896	      0.65096973	      1.01497518	     -0.20516792	      9.73869968	     -0.50476146	      9.97016894	    -15.96314275	    -20.10529949	     19.67900942	     47.60383415	     -4.92944549	    -10.32570195	      2.99376936	    -55.14336964	      2.00594161	     17.81613448	     29.66032886	      0.00000000	      0.00000000	      0.00000000
      2.09000000	     61.60356534	     -0.90889003	     -1.86042796	      0.65096751	      1.01495955	     -0.20515346	      9.72036733	     -0.50380642	      9.97532383	    -15.96026270	    -20.11691390	     19.66073467	     47.64644734	     -4.94272927	    -10.33893153	      2.98391904	    -55.16088285	      2.24459536	     17.88188740	     29.60554295	      0.00000000	      0.00000000	      0.00000000
      2.10000000	     61.61706907	     -0.91135862	     -1.86639544	      0.65096497	      1.01494238	     -0.20514305	      9.70938469	     -0.50288495	      9.97968659	    -15.95834320	    -20.12971684	     19.64243963	     47.67881798	     -4.94576943	    -10.34914300	      2.97804119	    -55.18005457	      2.44352587	     17.94380813	     29.55679306	      0.00000000	      0.00000000	      0.00000000
      2.11000000	     61.62013873	     -0.91260611	     -1.87178021	      0.65096521	      1.01492762	     -0.20513603	      9.70968573	     -0.50122562	      9.98407522	    -15.95773731	    -20.14347364	     19.62487948	     47.69758422	     -4.94018930	    -10.35583730	      2.97760107	    -55.18912738	      2.59536983	     17.98229361	     29.51278174	      0.00000000	      0.00000000	      0.00000000
      2.12000000	     61.61156212	     -0.91259007	     -1.87614244	      0.65096802	      1.01491357	     -0.20513166	      9.72215381	     -0.49842310	      9.98866933	    -15.95871476	    -20.15746436	     19.60903921	     47.70048519	     -4.92813109	    -10.35909205	      2.98200697	    -55.18244215	      2.70202345	     17.98581618	     29.47250462	      0.00000000	      0.00000000	      0.00000000
      2.13000000	     61.59310043	     -0.91137394	     -1.87927295	      0.65097433	      1.01490177	     -0.20512918	      9.74498401	     -0.49437725	      9.99309085	    -15.96156468	    -20.17054399	     19.59602345	     47.68666012	     -4.91150750	    -10.35944471	      2.98937623	    -55.16105296	      2.77154987	     17.95107610	     29.43523428	      0.00000000	      0.00000000	      0.00000000
      2.14000000	     61.56824054	     -0.90903812	     -1.88105416	      0.65098414	      1.01489695	     -0.20512822	      9.77462335	     -0.48916191	      9.99680810	    -15.96659914	    -20.18125556	     19.58687805	     47.65691953	     -4.89168605	    -10.35774255	      2.99759374	    -55.13102672	      2.81509689	     17.88209888	     29.40047407	      0.00000000	      0.00000000	      0.00000000
      2.15000000	     61.54093639	     -0.90576237	     -1.88144665	      0.65099327	      1.01489848	     -0.20512702	      9.80691728	     -0.48297685	      9.99962139	    -15.97405675	    -20.18800485	     19.58236932	     47.61394530	     -4.86939851	    -10.35487045	      3.00513560	    -55.10065997	      2.84438774	     17.78859502	     29.36794164	      0.00000000	      0.00000000	      0.00000000
      2.16000000	     61.51479798	     -0.90191284	     -1.88065033	      0.65099882	      1.01489751	     -0.20512268	      9.83814081	     -0.47614722	     10.00196497	    -15.98397300	    -20.18932107	     19.58276716	     47.56237198	     -4.84482655	    -10.35146927	      3.01137732	    -55.07775100	      2.87011018	     17.68390405	     29.33760115	      0.00000000	      0.00000000	      0.00000000
      2.17000000	     61.49263295	     -0.89792944	     -1.87921589	      0.65100282	      1.01488536	     -0.20511621	      9.86570735	     -0.46904220	     10.00486088	    -15.99607685	    -20.18422327	     19.58769052	     47.50870392	     -4.81800227	    -10.34780595	      3.01638219	    -55.06762043	      2.90125457	     17.58280040	     29.30971413	      0.00000000	      0.00000000	      0.00000000
      2.18000000	     61.47610255	     -0.89414484	     -1.87791494	      0.65100672	      1.01486425	     -0.20511321	      9.88847325	     -0.46191456	     10.00952128	    -16.00972755	    -20.17267810	     19.59606560	     47.46103533	     -4.78950898	    -10.34385542	      3.02038435	    -55.07197679	      2.94519514	     17.49937586	     29.28484311	      0.00000000	      0.00000000	      0.00000000
      2.19000000	     61.46536456	     -0.89070971	     -1.87743681	      0.65100705	      1.01484427	     -0.20511686	      9.90657663	     -0.45473565	     10.01678777	    -16.02391467	    -20.15609128	     19.60622353	     47.42855926	     -4.76115865	    -10.33958719	      3.02333427	    -55.08835676	      3.00812867	     17.44515616	     29.26373853	      0.00000000	      0.00000000	      0.00000000
      2.20000000	     61.45877945	     -0.88756672	     -1.87803713	      0.65100215	      1.01482930	     -0.20512479	      9.92089476	     -0.44704666	     10.02671878	    -16.03735005	    -20.13772647	     19.61612783	     47.42087731	     -4.73621134	    -10.33533919	      3.02483848	    -55.10997441	      3.09542158	     17.42757053	     29.24707653	      0.00000000	      0.00000000	      0.00000000
      2.21000000	     61.45312267	     -0.88455138	     -1.87929219	      0.65100003	      1.01481602	     -0.20513112	      9.93253220	     -0.43799329	     10.03853613	    -16.04858744	    -20.12290458	     19.62368333	     47.44715116	     -4.71882766	    -10.33204235	      3.02453706	    -55.12622753	      3.21148820	     17.44887723	     29.23507352	      0.00000000	      0.00000000	      0.00000000
